<?xml version="1.0" encoding="UTF-8"?>
<svg version="1.1" xmlns="http://www.w3.org/2000/svg" width="1183" height="887">
<path d="M0 0 C390.39 0 780.78 0 1183 0 C1183 292.71 1183 585.42 1183 887 C792.61 887 402.22 887 0 887 C0 594.29 0 301.58 0 0 Z " fill="#FDFDFD" transform="translate(0,0)"/>
<path d="M0 0 C0.78139343 -0.00040283 1.56278687 -0.00080566 2.36785889 -0.0012207 C32.93887595 0.08958507 56.12978397 9.47593924 78.4375 30.4375 C79.04078125 30.96472656 79.6440625 31.49195313 80.265625 32.03515625 C89.12469264 40.12836991 95.55044167 51.1893601 99.40234375 62.4375 C100.42622912 65.53749435 100.42622912 65.53749435 101.9296875 68.83203125 C111.49229591 91.6980612 110.22098769 121.70196406 101.6875 144.75 C100.96497295 146.32539231 100.21067329 147.88633614 99.4375 149.4375 C98.84143101 150.71306696 98.24648604 151.98915947 97.65234375 153.265625 C93.98867786 160.99114225 90.1620452 167.99738665 84.4375 174.4375 C85.87774031 177.73532822 87.66587439 179.91180635 90.2109375 182.44140625 C90.9534375 183.18197266 91.6959375 183.92253906 92.4609375 184.68554688 C93.23695313 185.44931641 94.01296875 186.21308594 94.8125 187 C95.58078125 187.76763672 96.3490625 188.53527344 97.140625 189.32617188 C100.44403332 192.60386162 103.65388843 195.7137014 107.4375 198.4375 C106.72367007 204.35098106 101.19920909 208.19457203 97.18237305 212.19360352 C95.62665052 213.74835051 94.09349133 215.32321953 92.56054688 216.90039062 C91.57682369 217.88931854 90.5918391 218.87699363 89.60546875 219.86328125 C88.71110107 220.76473877 87.8167334 221.66619629 86.89526367 222.5949707 C84.4375 224.4375 84.4375 224.4375 82.44238281 224.54614258 C79.53125733 222.93637385 77.43447301 220.68136412 75.19140625 218.2734375 C74.17945074 217.22355886 73.16706789 216.17409198 72.15429688 215.125 C70.57069723 213.46681141 68.99226207 211.80427015 67.42163086 210.13378906 C65.89967734 208.52133074 64.35967865 206.92796469 62.81640625 205.3359375 C62.35166397 204.83081635 61.88692169 204.32569519 61.40809631 203.80526733 C59.9280702 202.22349079 59.9280702 202.22349079 57.4375 200.4375 C53.41461413 200.61320719 50.41944671 202.35628119 46.875 204.1875 C31.67670726 211.14008916 17.26923024 212.91941388 0.6875 213 C-0.09488037 213.0087616 -0.87726074 213.01752319 -1.68334961 213.02655029 C-12.92582972 213.11282705 -22.77150288 211.64095818 -33.5625 208.4375 C-34.66319824 208.12659424 -35.76389648 207.81568848 -36.89794922 207.49536133 C-60.18590158 200.75110837 -78.68093232 182.6358019 -90.50390625 162.05859375 C-99.55693773 144.87152103 -102.99950865 127.34526264 -102.9375 108 C-102.9362915 107.29984772 -102.93508301 106.59969543 -102.93383789 105.87832642 C-102.8138516 80.14675403 -96.7354769 52.31942923 -77.8125 33.4375 C-77.30203125 32.98375 -76.7915625 32.53 -76.265625 32.0625 C-74.36238909 30.31881658 -74.36238909 30.31881658 -72.25390625 27.5546875 C-69.63165856 24.36947694 -66.61892059 21.92295764 -63.25 19.5625 C-62.64462402 19.13759277 -62.03924805 18.71268555 -61.41552734 18.27490234 C-49.46159402 10.10714458 -37.64908835 5.50706941 -23.5625 2.4375 C-22.48887207 2.09887939 -21.41524414 1.76025879 -20.30908203 1.41137695 C-13.66702324 -0.31514282 -6.824662 -0.00357135 0 0 Z " fill="#083457" transform="translate(1064.5625,343.5625)"/>
<path d="M0 0 C5.27167602 4.37106136 10.1606822 9.1606822 15 14 C14.68281639 17.40648282 13.35289846 18.96878386 10.8671875 21.20703125 C10.22523438 21.79419922 9.58328125 22.38136719 8.921875 22.98632812 C8.24640625 23.58896484 7.5709375 24.19160156 6.875 24.8125 C5.55872105 26.00521521 4.24361305 27.19922397 2.9296875 28.39453125 C2.27967773 28.98186035 1.62966797 29.56918945 0.95996094 30.17431641 C-1.64120712 32.59727788 -4.10270113 35.14425696 -6.55029297 37.72143555 C-8 39 -8 39 -10 39 C-11.19204486 37.84201356 -12.37910643 36.67840959 -13.5390625 35.48828125 C-25.49882477 23.30467317 -41.24723712 17.96871831 -58.125 17.75 C-69.14314592 17.88064995 -78.25136035 18.85264179 -86.25390625 26.97265625 C-90.92435181 32.39538834 -91.6010384 36.99705013 -91.41796875 44.0234375 C-90.62224457 49.69018356 -87.76367109 53.18445623 -83.875 57.1875 C-75.63742927 62.38075111 -66.83829279 65.0704902 -57.4375 67.3125 C-47.90361949 69.68918433 -38.45752786 72.24575708 -29.0625 75.125 C-28.02859131 75.43735596 -26.99468262 75.74971191 -25.92944336 76.0715332 C-14.75906149 79.53546257 -4.88229116 83.2581115 4 91 C4.78503906 91.64195312 5.57007813 92.28390625 6.37890625 92.9453125 C15.35652365 100.48828593 20.48818806 109.32024939 22 121 C23.24962018 141.2343996 20.93674508 158.85864599 7.3125 174.75 C2.43842251 179.88793732 -2.78938526 183.63805566 -9 187 C-9.58958496 187.33056396 -10.17916992 187.66112793 -10.78662109 188.00170898 C-15.85265033 190.71866796 -20.75336741 192.09003136 -26.375 193.1875 C-31.83665738 194.1343974 -31.83665738 194.1343974 -37 196 C-41.45364724 196.23901506 -45.91177785 196.22860138 -50.37109375 196.24023438 C-52.56812217 196.24975356 -54.76413652 196.28067672 -56.9609375 196.3125 C-82.70147181 196.50645842 -105.81968726 188.54769901 -124.59765625 170.50390625 C-130.7317172 164.12929389 -135.74586863 157.27042773 -139 149 C-137.81910114 145.45730341 -137.28777657 145.32483657 -134.09765625 143.6953125 C-133.29392578 143.27878418 -132.49019531 142.86225586 -131.66210938 142.43310547 C-130.80423828 142.00143066 -129.94636719 141.56975586 -129.0625 141.125 C-128.19818359 140.68172363 -127.33386719 140.23844727 -126.44335938 139.78173828 C-124.73411421 138.90685941 -123.02273216 138.03614086 -121.30908203 137.16992188 C-119.40582075 136.20561356 -117.51209648 135.22250591 -115.62109375 134.234375 C-109.38469828 131 -109.38469828 131 -106 131 C-105.74347656 131.53367187 -105.48695313 132.06734375 -105.22265625 132.6171875 C-98.3280592 146.0349555 -87.87755401 155.02423144 -73.625 159.9375 C-60.22588867 164.10556906 -43.45361418 164.1090454 -30.74609375 157.8984375 C-24.5892917 154.38350447 -20.20210378 149.86481916 -18 143 C-16.81213619 132.26048826 -16.81213619 132.26048826 -20.25 122.375 C-32.0808813 109.85627676 -55.17373291 107.04299108 -71.37182617 102.94775391 C-91.69665871 97.79203125 -113.07347523 91.25919014 -124.75390625 72.3984375 C-132.20697301 58.05303627 -133.86286149 39.21309781 -129.09375 23.69140625 C-123.23559932 9.2761712 -113.39894019 -0.41875396 -100 -8 C-99.32324219 -8.39960938 -98.64648438 -8.79921875 -97.94921875 -9.2109375 C-70.1689691 -24.51020542 -25.02551062 -17.70252405 0 0 Z " fill="#083558" transform="translate(409,360)"/>
<path d="M0 0 C15.12022133 7.56011066 23.22259172 18.33506511 29.0546875 34.0546875 C31.01419151 40.15991902 31.1374985 45.74994265 31.11352539 52.11450195 C31.11367142 53.12960342 31.11381744 54.1447049 31.1139679 55.19056702 C31.11327223 58.53982697 31.10549597 61.88903104 31.09765625 65.23828125 C31.09579084 67.56284047 31.09436752 69.88740008 31.09336853 72.21195984 C31.08955302 78.32590829 31.07973095 84.43983292 31.06866455 90.55377197 C31.05842968 96.79430825 31.05386646 103.03484837 31.04882812 109.27539062 C31.03810784 121.51693922 31.02051883 133.7584639 31 146 C19.78 146 8.56 146 -3 146 C-3.33 140.72 -3.66 135.44 -4 130 C-4.70125 130.969375 -5.4025 131.93875 -6.125 132.9375 C-12.76586646 140.68254853 -23.11041598 146.68277529 -33 149 C-33.60658447 149.16910889 -34.21316895 149.33821777 -34.83813477 149.51245117 C-48.98496069 152.70287595 -66.10288073 150.21661374 -78.5625 143.0625 C-80.05940639 142.06786138 -81.54106956 141.04955071 -83 140 C-84.60875 138.8553125 -84.60875 138.8553125 -86.25 137.6875 C-89.89302189 134.12727406 -92.47618792 130.41159646 -95 126 C-95.49113281 125.15953125 -95.98226562 124.3190625 -96.48828125 123.453125 C-101.76983124 112.91978024 -102.06324079 99.00500417 -98.4375 87.8125 C-92.97722561 75.59370417 -82.80301227 66.44908438 -70.59765625 61.3203125 C-49.66659166 53.63877088 -26.58437755 53.81974939 -5 59 C-5.2329852 50.15821182 -5.73623109 42.88797249 -10 35 C-10.33 34.01 -10.66 33.02 -11 32 C-12.80549995 30.87001212 -12.80549995 30.87001212 -15 30 C-15.74378906 29.65839844 -16.48757813 29.31679688 -17.25390625 28.96484375 C-18.01574219 28.62582031 -18.77757812 28.28679687 -19.5625 27.9375 C-20.32691406 27.59589844 -21.09132813 27.25429688 -21.87890625 26.90234375 C-28.80885439 23.95424426 -37.48568948 23.83173961 -44.77734375 25.71875 C-46.99701895 26.65974051 -48.96713871 27.70752819 -51 29 C-52.0725 29.680625 -53.145 30.36125 -54.25 31.0625 C-58.32606443 34.66036693 -60.04432723 40.05889756 -62 45 C-66.56258261 45.19926942 -70.15056747 44.54415711 -74.5 43.1875 C-81.60978456 41.05759652 -88.72420226 39.45958252 -96 38 C-94.32110277 24.65566165 -87.49353489 13.83042893 -76.9375 5.6171875 C-68.53692388 -0.33225661 -59.88112611 -3.38062456 -50 -6 C-34.67455326 -11.10848225 -14.24438287 -6.05219084 0 0 Z " fill="#083457" transform="translate(641,406)"/>
<path d="M0 0 C15.7289111 12.30787294 26.4805438 28.91244383 29 49 C30.41639093 69.14351439 29.82079743 89.01109596 20 107 C14.77631875 102.64354469 9.94766804 98.04239775 5.1875 93.1875 C3.87081457 91.84537138 2.5519119 90.50541323 1.23046875 89.16796875 C0.37038208 88.29047974 0.37038208 88.29047974 -0.50708008 87.39526367 C-1.96766261 85.89784025 -1.96766261 85.89784025 -4 85 C-4 85.66 -4 86.32 -4 87 C-5.6376272 88.45402342 -7.33734196 89.83848678 -9.0625 91.1875 C-13.12959137 94.434908 -16.88578267 97.75138325 -20.49609375 101.4921875 C-22.5186298 103.51997689 -24.71947115 105.27232663 -27 107 C-25.48623919 110.56764285 -23.39486871 112.83706287 -20.6484375 115.546875 C-19.79765625 116.39121094 -18.946875 117.23554688 -18.0703125 118.10546875 C-17.18085937 118.97816406 -16.29140625 119.85085938 -15.375 120.75 C-14.4778125 121.63816406 -13.580625 122.52632812 -12.65625 123.44140625 C-10.44192996 125.63216969 -8.22307565 127.81812763 -6 130 C-8.57821139 132.57821139 -10.82699374 133.02434808 -14.3125 134.0625 C-15.44300781 134.40410156 -16.57351563 134.74570312 -17.73828125 135.09765625 C-34.551107 139.74886912 -52.77222787 137.89957145 -68.12109375 129.71484375 C-84.04536833 120.22942103 -94.04591444 104.78783043 -98.66796875 87.046875 C-100.21778839 79.95609373 -100.49033588 73.01849897 -100.44604492 65.79907227 C-100.43754665 63.69902829 -100.46640673 61.60173025 -100.49804688 59.50195312 C-100.56831681 46.38397257 -98.31545513 33.59770031 -91.75 22.0625 C-91.35796387 21.35359619 -90.96592773 20.64469238 -90.56201172 19.91430664 C-83.65166009 7.78146861 -73.09486651 -1.81713697 -60 -7 C-59.27425781 -7.29777344 -58.54851562 -7.59554688 -57.80078125 -7.90234375 C-39.60499213 -14.10090927 -15.93370023 -10.43484173 0 0 Z " fill="#FCFCFC" transform="translate(1103,387)"/>
<path d="M0 0 C0 26.73 0 53.46 0 81 C-3.67709682 79.16145159 -6.28867087 77.28604831 -9.4375 74.6875 C-10.36433594 73.92824219 -11.29117188 73.16898437 -12.24609375 72.38671875 C-14.96054352 70.03419562 -17.49289768 67.57080365 -20 65 C-23.49086922 66.46616507 -25.41718814 68.33280412 -27.875 71.1875 C-28.6690625 72.08984375 -29.463125 72.9921875 -30.28125 73.921875 C-30.71695313 74.41751953 -31.15265625 74.91316406 -31.6015625 75.42382812 C-39.71813779 84.57197932 -48.24315291 93.34039507 -56.875 102 C-57.6592334 102.78882568 -58.4434668 103.57765137 -59.25146484 104.39038086 C-63.42422824 108.55208647 -67.68004523 112.54709968 -72.14648438 116.39160156 C-74.93716036 118.81322609 -77.61783489 121.34779515 -80.3125 123.875 C-85.05017731 128.27778668 -89.89076563 132.48212592 -94.9375 136.53125 C-97.29019302 138.42780866 -99.61916889 140.34340834 -101.9375 142.28125 C-136.67616554 171.28472081 -178.56460217 200.7397332 -221.3125 216.4375 C-226.61481984 218.4274149 -231.74250605 220.6490695 -236.85546875 223.08203125 C-239 224 -239 224 -241 224 C-241 213.77 -241 203.54 -241 193 C-238.70546875 191.83984375 -236.4109375 190.6796875 -234.046875 189.484375 C-209.56138374 177.06653559 -209.56138374 177.06653559 -186 163 C-185.07251953 162.40541992 -184.14503906 161.81083984 -183.18945312 161.19824219 C-162.57844102 147.91364282 -142.85815496 133.29512077 -124.25 117.3125 C-123.66782715 116.81339111 -123.0856543 116.31428223 -122.48583984 115.80004883 C-117.49055328 111.48557256 -112.64517398 107.02022341 -107.83129883 102.50512695 C-104.91644774 99.77170669 -101.98446122 97.08704254 -98.9375 94.5 C-90.92929727 87.5791179 -83.43904555 79.88096895 -76.59765625 71.8125 C-74.85742348 69.8382506 -73.01324582 68.02031786 -71.125 66.1875 C-67.16990419 62.29348675 -63.72044039 58.08381284 -60.25 53.7578125 C-57.45235136 50.32875011 -54.51171379 47.04757485 -51.53125 43.77734375 C-49.93160961 42.06737572 -49.93160961 42.06737572 -49 40 C-49.55171875 39.76667969 -50.1034375 39.53335938 -50.671875 39.29296875 C-53.61255267 37.65980716 -55.79077251 35.60660793 -58.25 33.3125 C-62.7708068 29.13151223 -67.34375841 25.02918327 -72 21 C-68.88057264 18.92038176 -66.32845052 18.06521318 -62.75 17 C-61.65171875 16.67 -60.5534375 16.34 -59.421875 16 C-57.14151634 15.33359382 -54.85894091 14.6747266 -52.57421875 14.0234375 C-50.09723207 13.31418011 -47.62733032 12.5931337 -45.16015625 11.8515625 C-37.42719788 9.53233359 -29.68677532 7.36513882 -21.84155273 5.45849609 C-16.07477219 4.04831047 -10.38821794 2.42020121 -4.6953125 0.734375 C-2 0 -2 0 0 0 Z " fill="#02ACDA" transform="translate(241,279)"/>
<path d="M0 0 C12.54 0 25.08 0 38 0 C38 13.2 38 26.4 38 40 C48.89 40 59.78 40 71 40 C71 50.23 71 60.46 71 71 C60.44 71 49.88 71 39 71 C39.04034928 81.32732855 39.0974536 91.65419364 39.18390274 101.98124123 C39.22337984 106.77673316 39.25556718 111.5720414 39.27099609 116.36767578 C39.28616115 120.99741917 39.32060396 125.62665756 39.36830902 130.25617599 C39.38312438 132.02072124 39.39104111 133.78533859 39.39188385 135.54994583 C39.39425485 138.02554145 39.42134341 140.49974299 39.45410156 142.97509766 C39.4490712 143.70158508 39.44404083 144.42807251 39.43885803 145.17657471 C39.54200695 150.22829582 40.8117244 153.11575477 44 157 C47.10063465 159.06708977 47.76411957 159.24973411 51.2734375 159.23046875 C52.0984375 159.22853516 52.9234375 159.22660156 53.7734375 159.22460938 C54.63195312 159.21236328 55.49046875 159.20011719 56.375 159.1875 C57.65117188 159.1865332 57.65117188 159.1865332 58.953125 159.18554688 C63.21734844 159.15565746 66.75831827 158.84833635 71 158 C71 168.56 71 179.12 71 190 C62.50338473 191.69932305 55.51110112 192.33523264 47 192.3125 C45.7934375 192.32861328 44.586875 192.34472656 43.34375 192.36132812 C30.6361224 192.36823444 21.35864197 189.57495988 11.8359375 181.06640625 C6.08191442 175.1938546 3.49864034 168.74256793 1 161 C0.67 160.01 0.34 159.02 0 158 C-0.09144208 155.18529878 -0.12598604 152.39583574 -0.11352539 149.58129883 C-0.11367142 148.72254654 -0.11381744 147.86379425 -0.1139679 146.97901917 C-0.11327079 144.1383309 -0.10548783 141.29770807 -0.09765625 138.45703125 C-0.09579135 136.48833756 -0.09436779 134.51964341 -0.09336853 132.5509491 C-0.08954901 127.36746949 -0.07972352 122.18401786 -0.06866455 117.00054932 C-0.0584383 111.7119586 -0.0538683 106.42336337 -0.04882812 101.13476562 C-0.03810077 90.75649614 -0.02050851 80.37825477 0 70 C-6.93 70 -13.86 70 -21 70 C-21 60.1 -21 50.2 -21 40 C-14.07 40 -7.14 40 0 40 C0 26.8 0 13.6 0 0 Z " fill="#073356" transform="translate(813,363)"/>
<path d="M0 0 C12.54 0 25.08 0 38 0 C38 13.2 38 26.4 38 40 C48.89 40 59.78 40 71 40 C71 49.9 71 59.8 71 70 C60.11 70 49.22 70 38 70 C38.04041976 79.88437427 38.09763398 89.76826788 38.18390274 99.65235043 C38.22330617 104.24261278 38.25552948 108.83268534 38.27099609 113.4230957 C38.2862099 117.85834564 38.32073851 122.29307356 38.36830902 126.72809029 C38.38307431 128.41479501 38.39103821 130.10157429 38.39188385 131.78834343 C38.17617701 144.49418194 38.17617701 144.49418194 43 156 C46.8620561 159.49519412 50.82409881 159.40016824 55.8125 159.25 C56.48603516 159.24484375 57.15957031 159.2396875 57.85351562 159.234375 C62.68420956 159.16041222 67.12982991 158.60877126 72 158 C72 168.23 72 178.46 72 189 C63.06437652 191.06206696 55.90838946 192.53009825 47 192.4375 C45.95763184 192.42920166 44.91526367 192.42090332 43.84130859 192.41235352 C30.67778648 192.1238689 19.58681501 188.88176678 10.19140625 179.12109375 C-0.46646431 165.9648695 -0.29105761 149.90167758 -0.1953125 133.8671875 C-0.19157639 132.02060093 -0.18873224 130.17401237 -0.18673706 128.3274231 C-0.1791477 123.49746097 -0.1595402 118.66762158 -0.1373291 113.83770752 C-0.11676882 108.89703023 -0.10771369 103.95633286 -0.09765625 99.015625 C-0.07628933 89.34368775 -0.04114613 79.67187335 0 70 C-7.26 70 -14.52 70 -22 70 C-22 60.1 -22 50.2 -22 40 C-14.74 40 -7.48 40 0 40 C0 26.8 0 13.6 0 0 Z " fill="#073357" transform="translate(458,363)"/>
<path d="M0 0 C12.87 0 25.74 0 39 0 C39 67.98 39 135.96 39 206 C26.13 206 13.26 206 0 206 C0 138.02 0 70.04 0 0 Z " fill="#063255" transform="translate(901,346)"/>
<path d="M0 0 C0.66 0 1.32 0 2 0 C2 59.4 2 118.8 2 180 C-14.17 180 -30.34 180 -47 180 C-47.1807614 162.79707691 -47.32805428 145.59496726 -47.41449738 128.39135742 C-47.45570568 120.40297386 -47.51186089 112.41522329 -47.60351562 104.42724609 C-47.68338736 97.46285666 -47.73489696 90.49892573 -47.75270796 83.534091 C-47.76311599 79.84778247 -47.78747902 76.1627853 -47.84584045 72.47689819 C-47.91055083 68.35640938 -47.91191094 64.23818307 -47.90820312 60.1171875 C-47.95134644 58.29485847 -47.95134644 58.29485847 -47.99536133 56.43571472 C-47.93626586 50.36308739 -47.53429654 46.80591392 -43.17297363 42.37915039 C-41.80852064 41.22076174 -40.41801595 40.09216621 -39 39 C-37.77038953 37.94384556 -36.54444731 36.88338627 -35.32421875 35.81640625 C-34.66470215 35.24809082 -34.00518555 34.67977539 -33.32568359 34.09423828 C-28.56587272 29.80811003 -24.08254445 25.22944132 -19.56274414 20.69311523 C-17.80922808 18.93421804 -16.0504019 17.18075759 -14.29101562 15.42773438 C-13.15853325 14.29459147 -12.02636098 13.16113855 -10.89453125 12.02734375 C-10.37671585 11.51155258 -9.85890045 10.99576141 -9.32539368 10.46434021 C-6.82191177 7.94489485 -4.478403 5.39635541 -2.2565918 2.62329102 C-1.5119165 1.75760498 -0.76724121 0.89191895 0 0 Z " fill="#02ADDA" transform="translate(220,372)"/>
<path d="M0 0 C4.2075 0.061875 4.2075 0.061875 8.5 0.125 C8.5 11.345 8.5 22.565 8.5 34.125 C5.468125 34.2075 2.43625 34.29 -0.6875 34.375 C-12.00010124 34.8686875 -22.63608267 36.35068437 -31.55859375 43.92578125 C-38.49761416 51.78628123 -40.63392609 60.60383358 -40.70532227 70.74902344 C-40.71522186 71.61767532 -40.72512146 72.48632721 -40.73532104 73.38130188 C-40.76687728 76.24896531 -40.79167027 79.1166453 -40.81640625 81.984375 C-40.83698085 83.97406441 -40.85797745 85.96374949 -40.87937927 87.95343018 C-40.93454768 93.18781024 -40.98398005 98.42222941 -41.03222656 103.65667725 C-41.09131675 109.93846409 -41.15751595 116.22017953 -41.22252655 122.50190735 C-41.32047026 132.04289459 -41.40937138 141.58392783 -41.5 151.125 C-54.37 151.125 -67.24 151.125 -80.5 151.125 C-80.5 101.625 -80.5 52.125 -80.5 1.125 C-68.29 1.125 -56.08 1.125 -43.5 1.125 C-43.5 9.045 -43.5 16.965 -43.5 25.125 C-42.84 25.125 -42.18 25.125 -41.5 25.125 C-41.2525 24.42375 -41.005 23.7225 -40.75 23 C-36.57433072 13.39596065 -29.3699588 7.71266542 -20.1875 3.16796875 C-13.32741534 0.50569752 -7.27591543 -0.15282127 0 0 Z " fill="#093658" transform="translate(772.5,401.875)"/>
<path d="M0 0 C0 40.59 0 81.18 0 123 C-15.51 123 -31.02 123 -47 123 C-47.48130571 101.89830976 -47.48130571 101.89830976 -47.5859375 92.86914062 C-47.65754712 86.71886213 -47.74203254 80.57073699 -47.90527344 74.42211914 C-48.03613729 69.46169012 -48.10750318 64.50357026 -48.13852692 59.54154778 C-48.16061839 57.65346862 -48.20376501 55.7655093 -48.26876068 53.87841988 C-48.75719128 39.10302504 -48.75719128 39.10302504 -44.43762207 33.93331909 C-41.39154809 31.63599795 -38.34358759 29.82588321 -35 28 C-33.17911321 26.59969754 -31.38244176 25.16664642 -29.625 23.6875 C-28.73425781 22.95144531 -27.84351563 22.21539062 -26.92578125 21.45703125 C-18.99615622 14.79784014 -11.10084888 8.09207941 -3.453125 1.109375 C-2 0 -2 0 0 0 Z " fill="#00ABD9" transform="translate(160,429)"/>
<path d="M0 0 C0 25.74 0 51.48 0 78 C-14.85 78 -29.7 78 -45 78 C-49.14769928 31.70962778 -49.14769928 31.70962778 -42.55957031 23.15917969 C-36.7988029 17.38682262 -28.84097821 14.67397829 -21.25244141 12.16601562 C-16.94576391 10.62205138 -13.5884394 8.41046648 -10 5.625 C-8.6078125 4.62339844 -8.6078125 4.62339844 -7.1875 3.6015625 C-6.465625 3.07304687 -5.74375 2.54453125 -5 2 C-2 0 -2 0 0 0 Z " fill="#01ABD9" transform="translate(100,474)"/>
<path d="M0 0 C0.86206055 0.00386719 1.72412109 0.00773437 2.61230469 0.01171875 C10.67623328 0.11856506 18.53631708 1.00428424 26.5 2.25 C26.95590839 13.87566394 27.06478549 22.91373761 20.75 33.0625 C13.18384235 40.4184866 4.46586699 43.77839518 -5.9375 43.6875 C-7.14889648 43.7174707 -7.14889648 43.7174707 -8.38476562 43.74804688 C-14.78202574 43.74289195 -20.28205628 42.29730687 -25.02856445 37.80249023 C-30.21066302 31.82733797 -31.01925054 27.29430764 -30.87109375 19.51171875 C-30.11399401 12.8572105 -26.73006247 9.02243303 -21.6875 4.875 C-15.36783534 0.05103422 -7.61508935 -0.08345303 0 0 Z " fill="#F9FAFB" transform="translate(609.5,486.75)"/>
<path d="M0 0 C0 15.51 0 31.02 0 47 C-14.19 47 -28.38 47 -43 47 C-43 36.44 -43 25.88 -43 15 C-36.37660056 12.35064022 -29.79723365 9.817815 -23.0625 7.5 C-16.64753329 5.27805955 -10.25148175 3.02382356 -3.8984375 0.62890625 C-2 0 -2 0 0 0 Z " fill="#03AFDB" transform="translate(43,505)"/>
<path d="M0 0 C0.66 0.33 1.32 0.66 2 1 C-1.63 4.63 -5.26 8.26 -9 12 C-9.66 11.67 -10.32 11.34 -11 11 C-9.92173635 9.72486237 -8.83714481 8.45507431 -7.75 7.1875 C-7.14671875 6.47980469 -6.5434375 5.77210938 -5.921875 5.04296875 C-4.07629602 3.08110329 -2.20054668 1.54330375 0 0 Z " fill="#224868" transform="translate(745,409)"/>
</svg>
